<svg xmlns="http://www.w3.org/2000/svg" width="1600" height="900" viewBox="0 0 1600 900" role="img" aria-labelledby="title desc">
  <title id="title">NOVA n8n workflow topology</title><desc id="desc">Architecture visualization derived from the committed 42-node n8n workflow export.</desc>
  <defs><linearGradient id="bg" x2="1" y2="1"><stop stop-color="#11100f"/><stop offset="1" stop-color="#211a17"/></linearGradient><filter id="s"><feDropShadow dx="0" dy="9" stdDeviation="12" flood-opacity=".3"/></filter></defs>
  <rect width="1600" height="900" rx="28" fill="url(#bg)"/>
  <g font-family="Inter,Segoe UI,Arial,sans-serif">
    <text x="72" y="70" fill="#d66c4c" font-size="14" font-weight="800" letter-spacing="4">EXPORTED N8N TOPOLOGY / 42 NODES</text><text x="72" y="119" fill="#f2ece4" font-family="Georgia,serif" font-size="42">Five-stage automation control plane</text><text x="72" y="151" fill="#9e9185" font-size="15">Derived directly from NOVA_Commercial_AI_Automation_Platform_GEMINI_NATIVE_CLEAN.json</text>
    <g transform="translate(72 198)">
      <g fill="#1b1714" stroke="#55483f"><rect width="1456" height="105" rx="16"/><rect y="123" width="1456" height="105" rx="16"/><rect y="246" width="1456" height="175" rx="16"/><rect y="439" width="1456" height="105" rx="16"/><rect y="562" width="1456" height="105" rx="16"/></g>
      <g fill="#d66c4c" font-size="11" font-weight="800" letter-spacing="2"><text x="22" y="30">01 / INPUT + SECURITY</text><text x="22" y="153">02 / CONTEXT + ROUTING</text><text x="22" y="276">03 / SPECIALIST AGENT MESH</text><text x="22" y="469">04 / AUDIT + RESPONSE</text><text x="22" y="592">05 / DAILY PRODUCT INTELLIGENCE</text></g>
      <g stroke="#d66c4c" stroke-width="2" stroke-opacity=".65" fill="none"><path d="M300 67H395M590 67H685M895 67H990M340 190H460M670 190H790M1010 190H1130"/><path d="M300 345H395M585 345H680M870 345H965"/><path d="M300 506H510M730 506H970"/><path d="M300 629H440M650 629H790M1000 629H1140"/></g>
      <g filter="url(#s)" font-size="13" text-anchor="middle">
        <g><rect x="125" y="44" width="175" height="45" rx="10" fill="#f1ebe2"/><text x="212" y="72" fill="#171310" font-weight="700">Chat Trigger</text><rect x="395" y="44" width="195" height="45" rx="10" fill="#2a211c" stroke="#d66c4c"/><text x="492" y="72" fill="#f1ebe2">Normalize Input</text><rect x="685" y="44" width="210" height="45" rx="10" fill="#2a211c" stroke="#d66c4c"/><text x="790" y="72" fill="#f1ebe2">Security + Intent</text><rect x="990" y="44" width="210" height="45" rx="10" fill="#2a211c" stroke="#d66c4c"/><text x="1095" y="72" fill="#f1ebe2">Access Control</text></g>
        <g><rect x="125" y="167" width="215" height="45" rx="10" fill="#17372f" stroke="#52a98a"/><text x="232" y="195" fill="#d9f3e8">Load History</text><rect x="460" y="167" width="210" height="45" rx="10" fill="#17372f" stroke="#52a98a"/><text x="565" y="195" fill="#d9f3e8">Load Knowledge</text><rect x="790" y="167" width="220" height="45" rx="10" fill="#2a211c" stroke="#d66c4c"/><text x="900" y="195" fill="#f1ebe2">Build Context</text><rect x="1130" y="167" width="210" height="45" rx="10" fill="#2a211c" stroke="#d66c4c"/><text x="1235" y="195" fill="#f1ebe2">Specialist Router</text></g>
        <g><rect x="125" y="315" width="175" height="60" rx="12" fill="#43271f" stroke="#d66c4c"/><text x="212" y="341" fill="#fff1eb" font-weight="700">Automation</text><text x="212" y="360" fill="#bfa99d" font-size="11">ADVISOR</text><rect x="395" y="315" width="190" height="60" rx="12" fill="#43271f" stroke="#d66c4c"/><text x="490" y="341" fill="#fff1eb" font-weight="700">Technical</text><text x="490" y="360" fill="#bfa99d" font-size="11">ARCHITECT</text><rect x="680" y="315" width="190" height="60" rx="12" fill="#43271f" stroke="#d66c4c"/><text x="775" y="341" fill="#fff1eb" font-weight="700">Business</text><text x="775" y="360" fill="#bfa99d" font-size="11">STRATEGIST</text><rect x="965" y="315" width="220" height="60" rx="30" fill="#d66c4c"/><text x="1075" y="341" fill="#fff" font-weight="800">Google Gemini</text><text x="1075" y="360" fill="#ffe0d5" font-size="11">MODEL LAYER</text></g>
        <g fill="#9e9185" font-size="11"><text x="212" y="399">Memory · Calculator · Think</text><text x="490" y="399">Memory · Calculator · Think</text><text x="775" y="399">Memory · Calculator · Think</text><text x="1075" y="399">3 specialist model bindings</text></g>
        <g><rect x="125" y="483" width="175" height="45" rx="10" fill="#2a211c" stroke="#d66c4c"/><text x="212" y="511" fill="#f1ebe2">Prepare Record</text><rect x="510" y="483" width="220" height="45" rx="10" fill="#17372f" stroke="#52a98a"/><text x="620" y="511" fill="#d9f3e8">Save Conversation</text><rect x="970" y="483" width="220" height="45" rx="10" fill="#f1ebe2"/><text x="1080" y="511" fill="#171310" font-weight="700">Return Response</text></g>
        <g><rect x="125" y="606" width="175" height="45" rx="10" fill="#2a211c" stroke="#d66c4c"/><text x="212" y="634" fill="#f1ebe2">Daily Schedule</text><rect x="440" y="606" width="210" height="45" rx="10" fill="#17372f" stroke="#52a98a"/><text x="545" y="634" fill="#d9f3e8">Load Conversations</text><rect x="790" y="606" width="210" height="45" rx="10" fill="#43271f" stroke="#d66c4c"/><text x="895" y="634" fill="#fff1eb">Product Analyst</text><rect x="1140" y="606" width="210" height="45" rx="10" fill="#17372f" stroke="#52a98a"/><text x="1245" y="634" fill="#d9f3e8">Save Daily Insight</text></g>
      </g>
    </g>
    <g transform="translate(72 822)" font-size="12"><circle cx="6" cy="-4" r="6" fill="#d66c4c"/><text x="22" fill="#a89a8e">n8n logic / agent nodes</text><circle cx="225" cy="-4" r="6" fill="#52a98a"/><text x="241" fill="#a89a8e">Supabase persistence</text><text x="1456" text-anchor="end" fill="#6f655c">Architecture view — not an execution screenshot</text></g>
  </g>
</svg>
